<mxfile host="app.diagrams.net" modified="2024-04-04T17:22:22.309Z" agent="Mozilla/5.0 (Windows NT 10.0; Win64; x64; rv:124.0) Gecko/20100101 Firefox/124.0" etag="Cha-lfy8aJoK7ZusYgAA" version="23.1.1" type="github">
  <diagram name="Страница — 1" id="wocfSwBDGpoJUyAuP7iB">
    <mxGraphModel dx="2074" dy="1142" grid="1" gridSize="10" guides="1" tooltips="1" connect="1" arrows="1" fold="1" page="1" pageScale="1" pageWidth="827" pageHeight="1169" math="0" shadow="0">
      <root>
        <mxCell id="0" />
        <mxCell id="1" parent="0" />
        <mxCell id="yzx3rUNQU2bw9WCawo5O-1" value="" style="ellipse;whiteSpace=wrap;html=1;aspect=fixed;fillColor=#d5e8d4;strokeColor=#82b366;" vertex="1" parent="1">
          <mxGeometry x="40" y="500" width="40" height="40" as="geometry" />
        </mxCell>
        <mxCell id="yzx3rUNQU2bw9WCawo5O-5" value="" style="edgeStyle=orthogonalEdgeStyle;rounded=0;orthogonalLoop=1;jettySize=auto;html=1;" edge="1" parent="1" source="yzx3rUNQU2bw9WCawo5O-2" target="yzx3rUNQU2bw9WCawo5O-4">
          <mxGeometry relative="1" as="geometry" />
        </mxCell>
        <mxCell id="yzx3rUNQU2bw9WCawo5O-2" value="Регистрация заявки" style="rounded=1;whiteSpace=wrap;html=1;" vertex="1" parent="1">
          <mxGeometry x="170" y="495" width="110" height="50" as="geometry" />
        </mxCell>
        <mxCell id="yzx3rUNQU2bw9WCawo5O-3" value="" style="endArrow=classic;html=1;rounded=0;exitX=1;exitY=0.5;exitDx=0;exitDy=0;entryX=0;entryY=0.5;entryDx=0;entryDy=0;" edge="1" parent="1" source="yzx3rUNQU2bw9WCawo5O-1" target="yzx3rUNQU2bw9WCawo5O-2">
          <mxGeometry width="50" height="50" relative="1" as="geometry">
            <mxPoint x="390" y="600" as="sourcePoint" />
            <mxPoint x="440" y="550" as="targetPoint" />
          </mxGeometry>
        </mxCell>
        <mxCell id="yzx3rUNQU2bw9WCawo5O-15" value="" style="edgeStyle=orthogonalEdgeStyle;rounded=0;orthogonalLoop=1;jettySize=auto;html=1;" edge="1" parent="1" source="yzx3rUNQU2bw9WCawo5O-4" target="yzx3rUNQU2bw9WCawo5O-10">
          <mxGeometry relative="1" as="geometry" />
        </mxCell>
        <mxCell id="yzx3rUNQU2bw9WCawo5O-4" value="Презентация продукта" style="rounded=1;whiteSpace=wrap;html=1;" vertex="1" parent="1">
          <mxGeometry x="350" y="495" width="110" height="50" as="geometry" />
        </mxCell>
        <mxCell id="yzx3rUNQU2bw9WCawo5O-9" value="" style="edgeStyle=orthogonalEdgeStyle;rounded=0;orthogonalLoop=1;jettySize=auto;html=1;" edge="1" parent="1" source="yzx3rUNQU2bw9WCawo5O-6" target="yzx3rUNQU2bw9WCawo5O-2">
          <mxGeometry relative="1" as="geometry" />
        </mxCell>
        <mxCell id="yzx3rUNQU2bw9WCawo5O-6" value="CRM" style="shape=cylinder3;whiteSpace=wrap;html=1;boundedLbl=1;backgroundOutline=1;size=15;" vertex="1" parent="1">
          <mxGeometry x="195" y="350" width="60" height="80" as="geometry" />
        </mxCell>
        <mxCell id="yzx3rUNQU2bw9WCawo5O-8" value="" style="edgeStyle=orthogonalEdgeStyle;rounded=0;orthogonalLoop=1;jettySize=auto;html=1;" edge="1" parent="1" source="yzx3rUNQU2bw9WCawo5O-7" target="yzx3rUNQU2bw9WCawo5O-4">
          <mxGeometry relative="1" as="geometry" />
        </mxCell>
        <mxCell id="yzx3rUNQU2bw9WCawo5O-7" value="Презентация" style="shape=document;whiteSpace=wrap;html=1;boundedLbl=1;" vertex="1" parent="1">
          <mxGeometry x="345" y="360" width="120" height="80" as="geometry" />
        </mxCell>
        <mxCell id="yzx3rUNQU2bw9WCawo5O-14" value="" style="edgeStyle=orthogonalEdgeStyle;rounded=0;orthogonalLoop=1;jettySize=auto;html=1;" edge="1" parent="1" source="yzx3rUNQU2bw9WCawo5O-10" target="yzx3rUNQU2bw9WCawo5O-11">
          <mxGeometry relative="1" as="geometry" />
        </mxCell>
        <mxCell id="yzx3rUNQU2bw9WCawo5O-10" value="" style="rhombus;whiteSpace=wrap;html=1;" vertex="1" parent="1">
          <mxGeometry x="510" y="480" width="80" height="80" as="geometry" />
        </mxCell>
        <mxCell id="yzx3rUNQU2bw9WCawo5O-16" value="" style="edgeStyle=orthogonalEdgeStyle;rounded=0;orthogonalLoop=1;jettySize=auto;html=1;" edge="1" parent="1" source="yzx3rUNQU2bw9WCawo5O-11" target="yzx3rUNQU2bw9WCawo5O-12">
          <mxGeometry relative="1" as="geometry" />
        </mxCell>
        <mxCell id="yzx3rUNQU2bw9WCawo5O-24" value="" style="edgeStyle=orthogonalEdgeStyle;rounded=0;orthogonalLoop=1;jettySize=auto;html=1;entryX=0.5;entryY=1;entryDx=0;entryDy=0;" edge="1" parent="1" source="yzx3rUNQU2bw9WCawo5O-11" target="yzx3rUNQU2bw9WCawo5O-21">
          <mxGeometry relative="1" as="geometry">
            <mxPoint x="675" y="420" as="targetPoint" />
            <Array as="points" />
          </mxGeometry>
        </mxCell>
        <mxCell id="yzx3rUNQU2bw9WCawo5O-11" value="" style="ellipse;whiteSpace=wrap;html=1;aspect=fixed;fillColor=#dae8fc;strokeColor=#6c8ebf;" vertex="1" parent="1">
          <mxGeometry x="650" y="495" width="50" height="50" as="geometry" />
        </mxCell>
        <mxCell id="yzx3rUNQU2bw9WCawo5O-17" value="" style="edgeStyle=orthogonalEdgeStyle;rounded=0;orthogonalLoop=1;jettySize=auto;html=1;" edge="1" parent="1" source="yzx3rUNQU2bw9WCawo5O-12" target="yzx3rUNQU2bw9WCawo5O-13">
          <mxGeometry relative="1" as="geometry" />
        </mxCell>
        <mxCell id="yzx3rUNQU2bw9WCawo5O-12" value="Оформить сделку" style="rounded=1;whiteSpace=wrap;html=1;" vertex="1" parent="1">
          <mxGeometry x="750" y="500" width="110" height="40" as="geometry" />
        </mxCell>
        <mxCell id="yzx3rUNQU2bw9WCawo5O-13" value="" style="ellipse;whiteSpace=wrap;html=1;aspect=fixed;fillColor=#f8cecc;strokeColor=#b85450;" vertex="1" parent="1">
          <mxGeometry x="930" y="495" width="50" height="50" as="geometry" />
        </mxCell>
        <mxCell id="yzx3rUNQU2bw9WCawo5O-18" value="Лид оставил заявку" style="text;html=1;strokeColor=none;fillColor=none;align=center;verticalAlign=middle;whiteSpace=wrap;rounded=0;" vertex="1" parent="1">
          <mxGeometry x="30" y="555" width="60" height="30" as="geometry" />
        </mxCell>
        <mxCell id="yzx3rUNQU2bw9WCawo5O-19" value="Клиент готов оформить сделку" style="text;html=1;strokeColor=none;fillColor=none;align=center;verticalAlign=middle;whiteSpace=wrap;rounded=0;" vertex="1" parent="1">
          <mxGeometry x="615" y="555" width="120" height="30" as="geometry" />
        </mxCell>
        <mxCell id="yzx3rUNQU2bw9WCawo5O-20" value="Сделка" style="text;html=1;strokeColor=none;fillColor=none;align=center;verticalAlign=middle;whiteSpace=wrap;rounded=0;" vertex="1" parent="1">
          <mxGeometry x="930" y="555" width="60" height="30" as="geometry" />
        </mxCell>
        <mxCell id="yzx3rUNQU2bw9WCawo5O-37" value="" style="edgeStyle=orthogonalEdgeStyle;rounded=0;orthogonalLoop=1;jettySize=auto;html=1;" edge="1" parent="1" source="yzx3rUNQU2bw9WCawo5O-21" target="yzx3rUNQU2bw9WCawo5O-30">
          <mxGeometry relative="1" as="geometry" />
        </mxCell>
        <mxCell id="yzx3rUNQU2bw9WCawo5O-21" value="" style="ellipse;whiteSpace=wrap;html=1;aspect=fixed;fillColor=#dae8fc;strokeColor=#6c8ebf;" vertex="1" parent="1">
          <mxGeometry x="650" y="350" width="50" height="50" as="geometry" />
        </mxCell>
        <mxCell id="yzx3rUNQU2bw9WCawo5O-26" value="" style="edgeStyle=orthogonalEdgeStyle;rounded=0;orthogonalLoop=1;jettySize=auto;html=1;" edge="1" parent="1" source="yzx3rUNQU2bw9WCawo5O-27" target="yzx3rUNQU2bw9WCawo5O-12">
          <mxGeometry relative="1" as="geometry" />
        </mxCell>
        <mxCell id="yzx3rUNQU2bw9WCawo5O-22" value="" style="ellipse;whiteSpace=wrap;html=1;aspect=fixed;fillColor=#ffe6cc;strokeColor=#d79b00;" vertex="1" parent="1">
          <mxGeometry x="810" y="320" width="50" height="50" as="geometry" />
        </mxCell>
        <mxCell id="yzx3rUNQU2bw9WCawo5O-25" value="Клиент сомневается" style="text;html=1;strokeColor=none;fillColor=none;align=center;verticalAlign=middle;whiteSpace=wrap;rounded=0;" vertex="1" parent="1">
          <mxGeometry x="710" y="415" width="60" height="30" as="geometry" />
        </mxCell>
        <mxCell id="yzx3rUNQU2bw9WCawo5O-28" value="" style="edgeStyle=orthogonalEdgeStyle;rounded=0;orthogonalLoop=1;jettySize=auto;html=1;" edge="1" parent="1" source="yzx3rUNQU2bw9WCawo5O-22" target="yzx3rUNQU2bw9WCawo5O-27">
          <mxGeometry relative="1" as="geometry">
            <mxPoint x="825" y="410" as="sourcePoint" />
            <mxPoint x="805" y="500" as="targetPoint" />
          </mxGeometry>
        </mxCell>
        <mxCell id="yzx3rUNQU2bw9WCawo5O-27" value="Клиент готов оформитьсделку" style="text;html=1;strokeColor=none;fillColor=none;align=center;verticalAlign=middle;whiteSpace=wrap;rounded=0;" vertex="1" parent="1">
          <mxGeometry x="805" y="390" width="60" height="30" as="geometry" />
        </mxCell>
        <mxCell id="yzx3rUNQU2bw9WCawo5O-33" value="" style="edgeStyle=orthogonalEdgeStyle;rounded=0;orthogonalLoop=1;jettySize=auto;html=1;" edge="1" parent="1" source="yzx3rUNQU2bw9WCawo5O-29" target="yzx3rUNQU2bw9WCawo5O-30">
          <mxGeometry relative="1" as="geometry" />
        </mxCell>
        <mxCell id="yzx3rUNQU2bw9WCawo5O-29" value="Регламент работы с возражениями" style="shape=document;whiteSpace=wrap;html=1;boundedLbl=1;" vertex="1" parent="1">
          <mxGeometry x="440" y="200" width="120" height="80" as="geometry" />
        </mxCell>
        <mxCell id="yzx3rUNQU2bw9WCawo5O-34" value="" style="edgeStyle=orthogonalEdgeStyle;rounded=0;orthogonalLoop=1;jettySize=auto;html=1;" edge="1" parent="1" source="yzx3rUNQU2bw9WCawo5O-30" target="yzx3rUNQU2bw9WCawo5O-32">
          <mxGeometry relative="1" as="geometry" />
        </mxCell>
        <mxCell id="yzx3rUNQU2bw9WCawo5O-30" value="Работа с возражениями" style="rounded=1;whiteSpace=wrap;html=1;" vertex="1" parent="1">
          <mxGeometry x="640" y="215" width="110" height="50" as="geometry" />
        </mxCell>
        <mxCell id="yzx3rUNQU2bw9WCawo5O-31" value="" style="ellipse;whiteSpace=wrap;html=1;aspect=fixed;fillColor=#f8cecc;strokeColor=#b85450;" vertex="1" parent="1">
          <mxGeometry x="940" y="215" width="50" height="50" as="geometry" />
        </mxCell>
        <mxCell id="yzx3rUNQU2bw9WCawo5O-35" value="" style="edgeStyle=orthogonalEdgeStyle;rounded=0;orthogonalLoop=1;jettySize=auto;html=1;" edge="1" parent="1" source="yzx3rUNQU2bw9WCawo5O-32" target="yzx3rUNQU2bw9WCawo5O-31">
          <mxGeometry relative="1" as="geometry" />
        </mxCell>
        <mxCell id="yzx3rUNQU2bw9WCawo5O-36" value="" style="edgeStyle=orthogonalEdgeStyle;rounded=0;orthogonalLoop=1;jettySize=auto;html=1;" edge="1" parent="1" source="yzx3rUNQU2bw9WCawo5O-32" target="yzx3rUNQU2bw9WCawo5O-22">
          <mxGeometry relative="1" as="geometry" />
        </mxCell>
        <mxCell id="yzx3rUNQU2bw9WCawo5O-32" value="" style="rhombus;whiteSpace=wrap;html=1;" vertex="1" parent="1">
          <mxGeometry x="795" y="200" width="80" height="80" as="geometry" />
        </mxCell>
        <mxCell id="yzx3rUNQU2bw9WCawo5O-38" value="Клиент отказался" style="text;html=1;strokeColor=none;fillColor=none;align=center;verticalAlign=middle;whiteSpace=wrap;rounded=0;" vertex="1" parent="1">
          <mxGeometry x="930" y="270" width="60" height="30" as="geometry" />
        </mxCell>
      </root>
    </mxGraphModel>
  </diagram>
</mxfile>
